<?xml version="1.0" standalone="no"?>
<!DOCTYPE svg PUBLIC "-//W3C//DTD SVG 20010904//EN"
 "http://www.w3.org/TR/2001/REC-SVG-20010904/DTD/svg10.dtd">
<svg version="1.0" xmlns="http://www.w3.org/2000/svg"
 width="400.000000pt" height="400.000000pt" viewBox="0 0 400.000000 400.000000"
 preserveAspectRatio="xMidYMid meet">
<metadata>
Created by Andrei 1.14, written by Andrei 2001-202024
</metadata>
<g transform="translate(0.000000,400.000000) scale(0.100000,-0.100000)"
fill="#000000" stroke="none">
<path d="M2185 3331 c-2 -2 -471 -4 -1042 -6 -571 -1 -1039 -3 -1040 -4 -1 0
14 -37 32 -81 18 -44 31 -80 29 -80 -3 0 2 -13 11 -29 8 -17 17 -38 18 -48 2
-10 9 -31 16 -48 12 -29 39 -100 45 -120 2 -5 7 -25 11 -43 4 -18 12 -35 16
-38 5 -3 9 -16 9 -29 0 -13 4 -26 9 -29 7 -5 20 -51 21 -71 0 -3 7 -19 15 -35
9 -17 13 -30 9 -30 -4 0 -2 -6 4 -12 6 -7 11 -17 12 -23 3 -11 4 -14 24 -75 8
-25 24 -70 36 -100 12 -30 21 -57 21 -60 -1 -5 24 -78 39 -115 5 -11 20 -56
35 -100 14 -44 29 -87 32 -95 3 -8 7 -17 8 -20 1 -3 4 -12 7 -20 18 -48 53
-146 54 -152 1 -5 3 -10 4 -13 1 -3 3 -8 4 -12 1 -5 5 -14 9 -20 5 -7 6 -13 2
-13 -3 0 1 -13 10 -30 8 -16 15 -31 15 -32 -2 -4 4 -19 30 -93 12 -33 22 -65
24 -72 1 -7 5 -16 9 -19 4 -4 7 -18 7 -31 0 -13 5 -23 12 -23 6 0 9 -3 6 -6
-5 -4 61 -207 89 -274 3 -8 7 -21 9 -28 1 -8 6 -21 10 -30 4 -9 9 -23 11 -29
1 -7 5 -19 6 -25 2 -7 9 -26 15 -41 7 -16 12 -34 12 -42 0 -8 5 -17 10 -20 6
-4 8 -11 4 -16 -3 -5 -1 -15 4 -22 5 -7 13 -25 17 -42 11 -41 11 -40 40 -125
15 -41 28 -79 29 -85 15 -55 19 -65 28 -65 5 0 6 5 3 10 -3 6 -1 10 5 10 6 0
9 4 6 8 -2 4 6 29 19 55 14 26 22 47 18 47 -3 0 -1 6 5 12 5 7 22 45 37 83 14
39 30 79 35 90 5 11 19 45 30 75 11 30 25 64 29 75 19 42 46 120 43 128 -1 4
3 7 10 7 6 0 9 3 5 6 -3 4 0 19 8 34 8 15 11 30 8 34 -4 3 -1 6 5 6 7 0 11 3
11 8 -1 4 0 9 1 12 1 3 3 12 5 20 2 8 26 73 54 144 28 71 51 135 51 143 0 7 4
13 8 13 5 0 9 6 9 14 0 12 30 97 56 156 6 14 11 27 12 30 1 3 7 18 13 33 7 15
15 40 18 55 4 15 13 38 20 52 13 25 142 381 147 403 1 7 4 14 7 17 5 5 49 125
55 150 2 8 4 16 5 18 2 1 3 5 5 10 1 4 7 21 14 37 7 17 14 38 17 49 2 10 8 24
15 32 6 8 9 14 6 14 -4 0 7 31 23 69 17 39 30 77 30 85 0 9 5 16 12 16 6 0 9
3 5 6 -3 3 14 54 39 112 24 59 44 114 44 122 0 31 19 -10 54 -120 21 -63 44
-128 51 -145 7 -16 11 -33 9 -37 -3 -4 0 -8 5 -8 6 0 10 -3 9 -7 -3 -11 23
-86 35 -100 5 -7 7 -13 4 -13 -7 0 37 -124 53 -152 6 -10 10 -24 10 -31 0 -8
11 -41 25 -75 14 -34 26 -70 28 -81 2 -10 9 -26 15 -34 7 -8 11 -19 10 -23 -2
-5 2 -22 9 -39 22 -59 26 -70 29 -84 1 -7 7 -18 13 -24 6 -6 11 -21 11 -34 0
-13 4 -23 9 -23 5 0 11 -14 15 -31 3 -17 12 -45 20 -62 20 -42 47 -119 48
-134 1 -7 4 -13 8 -13 4 0 7 -7 7 -15 0 -8 7 -31 15 -52 18 -43 30 -73 34 -88
1 -5 10 -28 20 -50 10 -22 19 -44 20 -50 1 -5 9 -26 18 -46 8 -20 12 -39 9
-43 -4 -3 -1 -6 5 -6 7 0 12 -7 12 -15 0 -8 4 -23 9 -33 12 -22 76 -185 76
-194 0 -3 3 -10 8 -14 4 -4 7 -17 7 -29 0 -12 3 -25 7 -28 8 -9 43 -107 37
-107 -2 0 2 -10 11 -23 8 -13 12 -27 8 -30 -3 -4 -1 -7 5 -7 7 0 12 -8 12 -19
0 -16 12 -50 50 -146 5 -11 16 -40 25 -65 9 -25 22 -56 28 -70 6 -14 11 -28
12 -32 2 -5 4 -10 5 -13 1 -3 3 -9 4 -15 0 -5 6 -11 11 -11 11 -1 91 179 101
229 3 17 11 32 17 32 6 0 8 3 5 6 -3 3 9 47 28 98 18 52 30 97 27 100 -4 3 -1
6 5 6 7 0 12 9 12 20 0 11 5 20 12 20 6 0 9 3 5 6 -3 3 2 27 12 53 25 65 32
86 31 89 0 1 7 16 15 32 9 17 13 30 11 30 -3 0 3 20 14 45 11 25 19 46 19 48
0 1 2 9 5 17 47 128 158 437 159 445 3 13 25 71 43 111 8 17 15 40 17 50 2 11
10 33 16 49 7 17 14 37 16 45 2 8 4 16 5 18 2 1 4 7 5 12 1 6 4 12 5 15 1 3 3
8 4 13 1 4 4 12 7 17 10 17 43 120 41 128 -1 4 3 7 8 7 5 0 9 3 8 8 -1 4 4 23
11 42 8 19 15 38 16 43 1 4 4 9 5 12 1 3 4 10 5 15 1 6 4 12 5 15 3 5 3 6 15
50 4 17 12 36 18 43 5 6 7 12 4 12 -3 0 0 12 8 27 8 15 12 30 9 35 -3 4 0 8 7
8 7 0 10 3 7 6 -4 3 0 21 8 40 8 19 11 34 7 34 -5 0 -3 4 2 8 8 6 58 133 69
177 2 6 6 19 10 30 5 11 14 37 22 58 8 20 11 37 8 37 -4 0 -2 6 3 13 6 6 16
30 23 52 7 22 15 45 19 50 3 6 7 19 8 29 2 11 8 24 13 31 27 32 -1 33 -838 32
-459 -1 -835 -4 -837 -6z"/>
<path d="M1971 2477 c-8 -17 -14 -34 -15 -37 -1 -3 -4 -9 -7 -15 -4 -5 -12
-28 -19 -50 -7 -22 -20 -58 -30 -80 -28 -64 -88 -220 -102 -264 -7 -23 -16
-41 -20 -41 -5 0 -8 -7 -8 -15 0 -12 -27 -86 -65 -180 -5 -11 -7 -23 -7 -27 1
-5 -2 -8 -8 -8 -6 0 -9 -3 -8 -7 1 -5 -4 -24 -11 -43 -8 -19 -13 -38 -12 -42
0 -5 -4 -8 -11 -8 -6 0 -8 -3 -5 -7 4 -3 2 -12 -4 -20 -6 -7 -8 -13 -4 -13 4
0 3 -6 -2 -12 -8 -10 -42 -94 -49 -118 0 -3 -7 -21 -15 -40 -7 -19 -12 -38
-11 -42 1 -5 -3 -8 -8 -8 -6 0 -10 -8 -10 -18 0 -10 -4 -22 -8 -27 -4 -6 -14
-28 -21 -50 -8 -22 -18 -51 -24 -65 -6 -14 -11 -30 -12 -36 -2 -6 -10 -27 -18
-45 -9 -19 -30 -74 -47 -124 -16 -49 -33 -97 -37 -105 -3 -8 -7 -17 -8 -20 -5
-15 -27 -68 -35 -85 -12 -25 -50 -128 -50 -135 0 -3 53 -4 117 -3 107 2 314 2
978 1 323 0 305 -2 300 23 -2 12 -8 26 -13 33 -5 6 -19 40 -31 76 -13 36 -25
72 -28 80 -20 53 -54 148 -57 162 -3 9 -10 27 -17 40 -7 13 -12 24 -11 26 1 1
-5 18 -13 38 -8 20 -15 40 -15 45 0 5 -4 17 -9 27 -13 24 -63 164 -61 170 0 1
-7 16 -15 32 -8 16 -15 32 -15 35 -1 6 -8 28 -17 53 -3 9 -7 19 -8 22 -1 3 -7
17 -12 31 -16 37 -131 324 -158 394 -30 78 -60 160 -77 210 -7 22 -15 42 -18
45 -3 3 -6 12 -8 20 -3 20 -93 243 -101 252 -4 4 -13 -7 -20 -25z"/>
</g>
</svg>
